<svg width="112" height="52" viewBox="0 0 112 52" fill="none" xmlns="http://www.w3.org/2000/svg">
<path d="M19 37L45.5 26L102 22L100 47.5H37L12 47L19 37Z" fill="white"/>
<path d="M5.90063 45.5356L5.9157 45.5494L5.93096 45.563C7.88331 47.3043 10.3077 48.0913 12.9615 48.0913C15.6154 48.0913 18.0397 47.3043 19.9921 45.563L20.0087 45.5482L20.0251 45.5331C21.9607 43.7544 22.9766 41.4553 22.9766 38.8259C22.9766 36.178 21.9718 33.8545 19.9921 32.0888C18.0397 30.3475 15.6154 29.5605 12.9615 29.5605C10.3077 29.5605 7.88331 30.3475 5.93096 32.0888L5.9157 32.1024L5.90063 32.1162C3.96517 33.8904 3 36.2064 3 38.8259C3 41.4454 3.96517 43.7614 5.90063 45.5356Z" fill="#526DFF" stroke="white" stroke-width="6"/>
<path d="M68.1189 35.3452L70.1156 34.0141L68.1189 35.3452ZM68.1189 35.3452C67.8333 34.9168 67.6905 34.4349 67.6905 33.8994V29.1882L69.3506 36.3091C68.8151 36.0949 68.4045 35.7736 68.1189 35.3452ZM61.0896 46.7494L61.1144 46.7607L61.1393 46.7716C63.2424 47.6859 65.6137 48.0914 68.1725 48.0914C69.7782 48.0914 71.3375 47.8252 72.7372 47.1533L72.7846 47.1306L72.8311 47.1063C74.0008 46.4935 75.0028 45.6216 75.7125 44.4602C76.431 43.2843 76.7417 41.9778 76.7417 40.6467C76.7417 38.9591 76.3013 37.2777 75.1458 35.8995C74.003 34.4916 72.4227 33.7832 70.7619 33.5564C70.7372 33.5522 70.7134 33.5481 70.6905 33.5441V29.1713C72.4391 29.078 74.1649 28.5851 75.5496 27.381C77.1648 25.9765 77.8127 24.0513 77.8127 22.0648C77.8127 20.0783 77.1648 18.1531 75.5496 16.7486C74.1649 15.5445 72.4391 15.0517 70.6905 14.9583V14.0858C70.6905 11.6684 70.133 9.33822 68.5842 7.53758C66.9818 5.62988 64.7193 4.87402 62.3355 4.87402C59.9549 4.87402 57.7132 5.65019 56.1217 7.55997L58.4264 9.48053L56.1217 7.55997C54.6201 9.36191 54.0876 11.6833 54.0876 14.0858V15.1462C52.8715 15.3951 51.7134 15.8918 50.728 16.7486C49.1128 18.1531 48.4648 20.0783 48.4648 22.0648C48.4648 24.0513 49.1128 25.9765 50.728 27.381C51.7134 28.2378 52.8715 28.7346 54.0876 28.9834V34.3813C54.0876 37.2312 54.6145 39.8462 55.8823 42.0404L55.8897 42.0532L55.8971 42.0658C57.1339 44.1588 58.8829 45.742 61.0896 46.7494Z" fill="#526DFF" stroke="white" stroke-width="6"/>
<path d="M28.4801 46.5512L28.4885 46.5553L28.4968 46.5593C31.2522 47.8939 34.3358 48.5194 37.6765 48.5194C40.1128 48.5194 42.4711 48.1548 44.7375 47.4167C47.1273 46.6862 49.2064 45.4784 50.6513 43.6079C51.8051 42.1222 52.401 40.3758 52.2939 38.4729C52.2466 37.1593 51.8925 35.9271 51.2191 34.8426C51.5486 34.5748 51.8608 34.2732 52.153 33.936L52.1689 33.9177L52.1845 33.8991C53.9121 31.8393 54.115 29.2549 53.566 26.7768C53.0192 24.2577 52.0111 21.9998 50.4957 20.0731C48.9969 18.0858 47.0526 16.5856 44.7294 15.5733C42.3939 14.52 39.8084 14.0308 37.0339 14.0308C33.7634 14.0308 30.7478 14.707 28.0727 16.1502C25.3923 17.5602 23.2803 19.6085 21.786 22.2455L21.7766 22.2621L21.7674 22.2788C20.3047 24.9383 19.6289 27.9705 19.6289 31.2751C19.6289 34.694 20.3438 37.8098 21.9118 40.4979L21.9212 40.5139L21.9307 40.5298C23.5139 43.1685 25.7151 45.1906 28.4801 46.5512Z" fill="#526DFF" stroke="white" stroke-width="6"/>
<path d="M76.8967 5.64171L79.1638 7.60651L76.8967 5.64171ZM76.8967 5.64171C78.5253 3.76262 80.782 3 83.18 3C85.5512 3 87.7846 3.77001 89.3749 5.66325C90.9239 7.46393 91.4815 9.79425 91.4815 12.2118V14.7617C92.9158 14.2574 94.4653 14.0313 96.0856 14.0313C98.574 14.0313 100.89 14.6013 102.868 15.9125C104.776 17.142 106.183 18.8606 107.08 20.9677C107.992 22.9888 108.403 25.2343 108.403 27.6343V39.3082C108.403 41.7258 107.846 44.0561 106.297 45.8568C104.706 47.75 102.473 48.52 100.102 48.52C97.7039 48.52 95.4471 47.7574 93.8186 45.8783C92.2554 44.0747 91.6933 41.7354 91.6933 39.3082V29.1872C91.6933 28.7305 91.6514 28.4225 91.6061 28.2309C91.5934 28.2322 91.5817 28.2336 91.5709 28.235C91.5301 28.3708 91.4815 28.6195 91.4815 29.0266V39.3082C91.4815 41.7256 90.9239 44.0558 89.3752 45.8564C87.7848 47.7499 85.5513 48.52 83.18 48.52C80.782 48.52 78.5253 47.7574 76.8967 45.8783C75.3336 44.0747 74.7715 41.7354 74.7715 39.3082V12.2118C74.7715 9.7846 75.3336 7.44533 76.8967 5.64171ZM91.4668 28.259C91.4669 28.2589 91.4673 28.2587 91.468 28.2584L91.4668 28.259Z" fill="#526DFF" stroke="white" stroke-width="6"/>
<path d="M61.9202 44.93L61.9285 44.9338L61.9368 44.9374C63.7326 45.7182 65.8201 46.0914 68.1725 46.0914C69.5645 46.0914 70.8102 45.8598 71.8718 45.3503L71.8875 45.3427L71.903 45.3346C72.7928 44.8686 73.5075 44.2328 74.0059 43.4173C74.5072 42.5969 74.7417 41.6616 74.7417 40.6467C74.7417 39.2996 74.393 38.1081 73.6029 37.1722C72.8399 36.2253 71.7517 35.7043 70.4617 35.5341C70.0821 35.4704 69.8352 35.4134 69.6935 35.3691C69.3385 35.2218 69.107 35.0246 68.951 34.7905C68.7794 34.5332 68.6905 34.2458 68.6905 33.8994V27.1882H70.0467C71.7248 27.1882 73.1716 26.7984 74.2372 25.8718C75.323 24.9276 75.8127 23.6076 75.8127 22.0648C75.8127 20.522 75.323 19.202 74.2372 18.2578C73.1716 17.3313 71.7248 16.9414 70.0467 16.9414H68.6905V14.0858C68.6905 11.9479 68.1956 10.1475 67.0602 8.83289C65.9309 7.48271 64.2958 6.87402 62.3355 6.87402C60.3996 6.87402 58.7836 7.48975 57.6581 8.84034C56.5626 10.155 56.0876 11.9522 56.0876 14.0858V16.9424C54.4704 16.9642 53.0755 17.3577 52.0403 18.2578C50.9545 19.202 50.4648 20.522 50.4648 22.0648C50.4648 23.6076 50.9545 24.9276 52.0403 25.8718C53.0755 26.7719 54.4704 27.1655 56.0876 27.1872V34.3813C56.0876 36.9973 56.5726 39.2375 57.614 41.0399L57.614 41.0399L57.619 41.0483C58.65 42.7932 60.0899 44.0944 61.9202 44.93Z" fill="#526DFF" stroke="white" stroke-width="2"/>
<path d="M29.3631 44.7567L29.3687 44.7594C31.8103 45.942 34.5875 46.5194 37.6765 46.5194C39.9165 46.5194 42.0711 46.1837 44.1356 45.5093C46.2644 44.8614 47.9455 43.8402 49.07 42.3833C49.9543 41.2457 50.3793 39.9612 50.2959 38.5652C50.2498 37.1601 49.7486 35.9393 48.7802 34.967C48.5365 34.7133 48.2745 34.4923 47.9956 34.3029C49.0318 34.0029 49.9257 33.4522 50.6416 32.6262L50.6469 32.6201L50.6521 32.6139C51.847 31.1892 52.081 29.3161 51.6124 27.205C51.1207 24.9376 50.2255 22.9593 48.9111 21.2936C47.6261 19.5839 45.9545 18.2865 43.9188 17.4018C41.8788 16.4794 39.577 16.0308 37.0339 16.0308C34.0398 16.0308 31.3567 16.6488 29.0131 17.9153C26.6679 19.1469 24.8333 20.9245 23.526 23.2315L23.526 23.2315L23.5198 23.2426C22.2469 25.5571 21.6289 28.2457 21.6289 31.2751C21.6289 34.4139 22.2837 37.1661 23.6394 39.4902L23.6393 39.4902L23.6457 39.5008C25.0302 41.8084 26.9421 43.5653 29.3631 44.7567ZM34.7326 35.3121C34.6133 35.0914 34.5187 34.8477 34.4521 34.5778H41.5265C41.1905 34.8374 40.8715 35.1427 40.5681 35.4865L40.5653 35.4897C40.1513 35.9628 39.7204 36.2726 39.2771 36.4551C38.795 36.6536 38.2822 36.7547 37.73 36.7547C37.0138 36.7547 36.4051 36.6235 35.8847 36.3827C35.4065 36.1116 35.0265 35.7568 34.7326 35.3121ZM38.5964 25.8974L38.6074 25.9078L38.6186 25.9178C38.8133 26.0908 38.9715 26.3055 39.0805 26.5801H34.6034C34.7407 26.3255 34.9172 26.1063 35.1303 25.9156C35.6066 25.4894 36.2006 25.26 36.9803 25.26C37.6203 25.26 38.1414 25.4677 38.5964 25.8974Z" fill="#526DFF" stroke="white" stroke-width="2"/>
<path d="M7.25208 44.0613L7.25202 44.0613L7.26219 44.0704C8.79357 45.4362 10.7203 46.0913 12.9615 46.0913C15.2027 46.0913 17.1295 45.4362 18.6608 44.0704L18.6664 44.0655L18.6719 44.0605C20.1977 42.6584 20.9766 40.8924 20.9766 38.8259C20.9766 36.7295 20.2013 34.9554 18.6608 33.5814C17.1295 32.2156 15.2027 31.5605 12.9615 31.5605C10.7203 31.5605 8.79357 32.2156 7.26219 33.5814L7.26213 33.5813L7.25208 33.5905C5.75012 34.9673 5 36.7389 5 38.8259C5 40.9129 5.75012 42.6845 7.25208 44.0613Z" fill="#526DFF" stroke="white" stroke-width="2"/>
<path d="M93.1386 26.8352L93.1463 26.8456L93.1543 26.8559C93.4556 27.2433 93.6933 27.9607 93.6933 29.1872V39.3082C93.6933 41.4501 94.1901 43.2532 95.3299 44.5684C96.4916 45.9088 98.1364 46.52 100.102 46.52C102.034 46.52 103.648 45.9065 104.773 44.5611C105.908 43.2465 106.403 41.4461 106.403 39.3082V27.6343C106.403 25.4542 106.028 23.4918 105.248 21.7707C104.497 19.9976 103.338 18.5915 101.774 17.5866C100.186 16.5306 98.2714 16.0313 96.0856 16.0313C94.1038 16.0313 92.3452 16.4124 90.8486 17.2202C90.3593 17.4787 89.903 17.7614 89.4815 18.0689V12.2118C89.4815 10.0739 88.9866 8.27347 87.8512 6.95889C86.726 5.61346 85.1124 5 83.18 5C81.2145 5 79.5698 5.61121 78.4081 6.95158C77.2683 8.26678 76.7715 10.0699 76.7715 12.2118V39.3082C76.7715 41.4501 77.2683 43.2532 78.4081 44.5684C79.5698 45.9088 81.2145 46.52 83.18 46.52C85.1124 46.52 86.726 45.9066 87.8512 44.5612C88.9866 43.2466 89.4815 41.4461 89.4815 39.3082V29.0266C89.4815 28.3153 89.5884 27.7711 89.7625 27.3621C89.9733 26.9488 90.2219 26.6825 90.4914 26.513C90.8129 26.3329 91.2205 26.2245 91.7481 26.2245C92.4466 26.2245 92.8563 26.4521 93.1386 26.8352Z" fill="#526DFF" stroke="white" stroke-width="2"/>
</svg>
