<svg width="85" height="90" viewBox="0 0 85 90" fill="none" xmlns="http://www.w3.org/2000/svg">
<mask id="path-1-outside-1_6935_70011" maskUnits="userSpaceOnUse" x="0" y="0" width="85" height="90" fill="black">
<rect fill="white" width="85" height="90"/>
<path fill-rule="evenodd" clip-rule="evenodd" d="M50.1103 6H47.5156V8.59472H50.1103V6ZM60.4881 57.894V55.2993H24.1621V57.894H60.4881ZM34.543 57.894V57.8945H24.1641V60.4888V60.4892V63.0835H31.9473H39.7314H42.3262H44.9209H50.1113H52.706H60.4901V60.4892V60.4888V57.8945H37.1377V57.894H34.543ZM24.1641 63.0835V65.6782H34.541H37.1357H42.3262H44.9209H60.4901V63.0835H44.9209H42.3262H37.1357H34.541H24.1641ZM24.1621 68.2729V65.6787H29.3515V68.2729V68.2734V70.8677L29.3535 70.8677V73.4624V76.0571V78.6518H24.1641V76.0571V73.4624V70.8677L24.1621 70.8677V68.2734V68.2729ZM31.9473 65.6787V68.2734H39.7305H47.5146H60.4891V65.6787H47.5146H39.7305H31.9473ZM31.9473 68.2734V70.8677V70.8682V73.4624V76.0571H42.3262V76.0576H31.9473V78.6519V78.6523V81.2466V83.8413H60.4891V81.2466V78.6523V78.6519V76.0576H44.9209V76.0571H60.4891V73.4624V70.8682V70.8677V68.2734H52.704H34.541H31.9473ZM24.1621 81.2471V78.6523H29.3515V81.2466H29.3535V83.8413H24.1641V81.2471H24.1621ZM47.5156 11.1894V8.59473H50.1103V11.1894H47.5156ZM65.6787 8.59473H63.084V11.1894H65.6787V8.59473ZM44.9199 11.1895H47.5146V13.7842H44.9199V11.1895ZM63.084 11.1895H57.8945V13.7842H63.084V11.1895ZM18.9746 13.7842H21.5693V16.3789H18.9746V13.7842ZM26.7588 13.7837H24.1641V16.3784H26.7588V13.7837ZM29.3535 13.7837H31.9482V16.3784H29.3535V13.7837ZM44.9199 13.7842V16.3789H47.5146V13.7842H44.9199ZM52.7051 13.7842H57.8945V16.3789H52.7051V13.7842ZM18.9736 16.3789H16.3789V18.9736H18.9736V16.3789ZM18.9746 16.3789H21.5684H21.5693H24.1621H24.1631H26.7568V18.9736H24.1631H24.1621H21.5693H21.5684H18.9746V16.3789ZM29.3516 16.3789H26.7578V18.9736H29.3516H29.3525H31.9463V16.3789H29.3525H29.3516ZM34.542 16.3789H31.9473V18.9736H34.542V16.3789ZM39.7305 16.3789H44.9199V18.9736H39.7305V16.3789ZM16.3789 18.9736H13.7852V21.5683H16.3789H16.3799H18.9727H18.9736H21.5674V18.9736H18.9736H18.9727H16.3799H16.3789ZM21.5684 21.5683V18.9736H26.7578V21.5683H21.5684ZM26.7578 18.9736V21.5683H34.541H34.542H42.3252V18.9736H34.542H34.541H26.7578ZM42.3262 18.9736V21.5683H57.8945V18.9736H42.3262ZM57.8945 18.9736H63.084V21.5683H57.8945V18.9736ZM13.7842 21.5684H11.1895V24.1631H13.7842V21.5684ZM13.7852 21.5684H16.3789H16.3799H18.9736V24.1631H16.3799H16.3789H13.7852V21.5684ZM18.9746 24.1631V21.5684H24.164V24.1631H18.9746ZM24.1641 21.5684V24.1631H29.3535V21.5684H24.1641ZM29.3535 24.1631V21.5684H39.7305H39.7324H47.5146V24.1631H39.7324H39.7305H29.3535ZM47.5156 24.1631V21.5684H55.2998V24.1631H47.5156ZM55.3008 21.5684V24.1626V24.1631V26.7573H57.8945H57.8955H60.4883V26.7578H63.083V24.1631L60.4902 24.1631V21.5684H55.3008ZM63.084 21.5684V24.1631H68.2734V21.5684H63.084ZM11.1895 26.7578V24.1631H13.7842V26.7578H11.1895ZM13.7852 24.1631V26.7578H16.3789H16.3799H18.9736V24.1631H16.3799H16.3789H13.7852ZM18.9746 24.1631V26.7578H21.5684H21.5693H26.7578V24.1631H21.5693H21.5684H18.9746ZM26.7578 24.1631V26.7578H42.3261V24.1631H26.7578ZM42.3262 26.7578V24.1631H44.9199H44.9209H47.5146V26.7578H44.9209H44.9199H42.3262ZM47.5156 26.7578V24.1631H55.2998V26.7578H47.5156ZM63.084 26.7578V24.1631H70.8681V26.7578H63.084ZM6 26.7578V29.3525H78.652V26.7578H6ZM8.5957 31.9473V29.3525H26.7578H42.3261H44.9199H60.4882H76.0583V31.9473V34.542H60.4892L73.4626 34.542V37.1367H57.8945H52.7051H47.5156H29.3535H18.9746H11.1895V34.542H18.9746H29.3535L29.3535 34.542H29.3525H26.7578H8.5957V31.9473ZM11.1895 37.1367V39.7314H18.9746H21.5693H26.7578H29.3525H29.3535L34.541 39.7314H29.3525H29.3516H26.7578H21.5693H18.9746H13.7852V42.3257V42.3262V44.9204H26.7578L16.3789 44.9204V47.5151H68.2732V44.9204L60.4882 44.9204H70.8689V42.3262V42.3257V39.7314L60.4892 39.7314H73.4626V37.1367H60.4892H57.8945H52.7051H47.5156H47.5146H44.9199H42.3252H39.7304H34.5429H34.541H29.3535H29.3525H26.7578H21.5693H18.9746H11.1895ZM18.9746 47.5156V50.1103H21.5684V52.7046H63.0838V50.1103H65.6796V47.5156H55.3008V50.1099H55.2997V47.5156H37.1376H37.1367H18.9746ZM26.7578 52.7046V55.2993H57.8944V52.7046H26.7578ZM44.9199 18.9736H52.7041V16.3789H44.9199V18.9736ZM52.7051 16.3789H60.4892V18.9736H52.7051V16.3789Z"/>
</mask>
<path fill-rule="evenodd" clip-rule="evenodd" d="M50.1103 6H47.5156V8.59472H50.1103V6ZM60.4881 57.894V55.2993H24.1621V57.894H60.4881ZM34.543 57.894V57.8945H24.1641V60.4888V60.4892V63.0835H31.9473H39.7314H42.3262H44.9209H50.1113H52.706H60.4901V60.4892V60.4888V57.8945H37.1377V57.894H34.543ZM24.1641 63.0835V65.6782H34.541H37.1357H42.3262H44.9209H60.4901V63.0835H44.9209H42.3262H37.1357H34.541H24.1641ZM24.1621 68.2729V65.6787H29.3515V68.2729V68.2734V70.8677L29.3535 70.8677V73.4624V76.0571V78.6518H24.1641V76.0571V73.4624V70.8677L24.1621 70.8677V68.2734V68.2729ZM31.9473 65.6787V68.2734H39.7305H47.5146H60.4891V65.6787H47.5146H39.7305H31.9473ZM31.9473 68.2734V70.8677V70.8682V73.4624V76.0571H42.3262V76.0576H31.9473V78.6519V78.6523V81.2466V83.8413H60.4891V81.2466V78.6523V78.6519V76.0576H44.9209V76.0571H60.4891V73.4624V70.8682V70.8677V68.2734H52.704H34.541H31.9473ZM24.1621 81.2471V78.6523H29.3515V81.2466H29.3535V83.8413H24.1641V81.2471H24.1621ZM47.5156 11.1894V8.59473H50.1103V11.1894H47.5156ZM65.6787 8.59473H63.084V11.1894H65.6787V8.59473ZM44.9199 11.1895H47.5146V13.7842H44.9199V11.1895ZM63.084 11.1895H57.8945V13.7842H63.084V11.1895ZM18.9746 13.7842H21.5693V16.3789H18.9746V13.7842ZM26.7588 13.7837H24.1641V16.3784H26.7588V13.7837ZM29.3535 13.7837H31.9482V16.3784H29.3535V13.7837ZM44.9199 13.7842V16.3789H47.5146V13.7842H44.9199ZM52.7051 13.7842H57.8945V16.3789H52.7051V13.7842ZM18.9736 16.3789H16.3789V18.9736H18.9736V16.3789ZM18.9746 16.3789H21.5684H21.5693H24.1621H24.1631H26.7568V18.9736H24.1631H24.1621H21.5693H21.5684H18.9746V16.3789ZM29.3516 16.3789H26.7578V18.9736H29.3516H29.3525H31.9463V16.3789H29.3525H29.3516ZM34.542 16.3789H31.9473V18.9736H34.542V16.3789ZM39.7305 16.3789H44.9199V18.9736H39.7305V16.3789ZM16.3789 18.9736H13.7852V21.5683H16.3789H16.3799H18.9727H18.9736H21.5674V18.9736H18.9736H18.9727H16.3799H16.3789ZM21.5684 21.5683V18.9736H26.7578V21.5683H21.5684ZM26.7578 18.9736V21.5683H34.541H34.542H42.3252V18.9736H34.542H34.541H26.7578ZM42.3262 18.9736V21.5683H57.8945V18.9736H42.3262ZM57.8945 18.9736H63.084V21.5683H57.8945V18.9736ZM13.7842 21.5684H11.1895V24.1631H13.7842V21.5684ZM13.7852 21.5684H16.3789H16.3799H18.9736V24.1631H16.3799H16.3789H13.7852V21.5684ZM18.9746 24.1631V21.5684H24.164V24.1631H18.9746ZM24.1641 21.5684V24.1631H29.3535V21.5684H24.1641ZM29.3535 24.1631V21.5684H39.7305H39.7324H47.5146V24.1631H39.7324H39.7305H29.3535ZM47.5156 24.1631V21.5684H55.2998V24.1631H47.5156ZM55.3008 21.5684V24.1626V24.1631V26.7573H57.8945H57.8955H60.4883V26.7578H63.083V24.1631L60.4902 24.1631V21.5684H55.3008ZM63.084 21.5684V24.1631H68.2734V21.5684H63.084ZM11.1895 26.7578V24.1631H13.7842V26.7578H11.1895ZM13.7852 24.1631V26.7578H16.3789H16.3799H18.9736V24.1631H16.3799H16.3789H13.7852ZM18.9746 24.1631V26.7578H21.5684H21.5693H26.7578V24.1631H21.5693H21.5684H18.9746ZM26.7578 24.1631V26.7578H42.3261V24.1631H26.7578ZM42.3262 26.7578V24.1631H44.9199H44.9209H47.5146V26.7578H44.9209H44.9199H42.3262ZM47.5156 26.7578V24.1631H55.2998V26.7578H47.5156ZM63.084 26.7578V24.1631H70.8681V26.7578H63.084ZM6 26.7578V29.3525H78.652V26.7578H6ZM8.5957 31.9473V29.3525H26.7578H42.3261H44.9199H60.4882H76.0583V31.9473V34.542H60.4892L73.4626 34.542V37.1367H57.8945H52.7051H47.5156H29.3535H18.9746H11.1895V34.542H18.9746H29.3535L29.3535 34.542H29.3525H26.7578H8.5957V31.9473ZM11.1895 37.1367V39.7314H18.9746H21.5693H26.7578H29.3525H29.3535L34.541 39.7314H29.3525H29.3516H26.7578H21.5693H18.9746H13.7852V42.3257V42.3262V44.9204H26.7578L16.3789 44.9204V47.5151H68.2732V44.9204L60.4882 44.9204H70.8689V42.3262V42.3257V39.7314L60.4892 39.7314H73.4626V37.1367H60.4892H57.8945H52.7051H47.5156H47.5146H44.9199H42.3252H39.7304H34.5429H34.541H29.3535H29.3525H26.7578H21.5693H18.9746H11.1895ZM18.9746 47.5156V50.1103H21.5684V52.7046H63.0838V50.1103H65.6796V47.5156H55.3008V50.1099H55.2997V47.5156H37.1376H37.1367H18.9746ZM26.7578 52.7046V55.2993H57.8944V52.7046H26.7578ZM44.9199 18.9736H52.7041V16.3789H44.9199V18.9736ZM52.7051 16.3789H60.4892V18.9736H52.7051V16.3789Z" fill="white"/>
<path d="M47.5156 6V0H41.5156V6H47.5156ZM50.1103 6H56.1103V0H50.1103V6ZM47.5156 8.59472H41.5156V14.5947H47.5156V8.59472ZM50.1103 8.59472V14.5947H56.1103V8.59472H50.1103ZM60.4881 55.2993H66.4881V49.2993H60.4881V55.2993ZM60.4881 57.894V63.894H66.4881V57.894H60.4881ZM24.1621 55.2993V49.2993H18.1621V55.2993H24.1621ZM24.1621 57.894H18.1621V63.894H24.1621V57.894ZM34.543 57.8945V63.8945H40.543V57.8945H34.543ZM34.543 57.894V51.894H28.543V57.894H34.543ZM24.1641 57.8945V51.8945H18.1641V57.8945H24.1641ZM24.1641 63.0835H18.1641V69.0835H24.1641V63.0835ZM60.4901 63.0835V69.0835H66.4901V63.0835H60.4901ZM60.4901 57.8945H66.4901V51.8945H60.4901V57.8945ZM37.1377 57.8945H31.1377V63.8945H37.1377V57.8945ZM37.1377 57.894H43.1377V51.894H37.1377V57.894ZM24.1641 65.6782H18.1641V71.6782H24.1641V65.6782ZM24.1641 63.0835V57.0835H18.1641V63.0835H24.1641ZM60.4901 65.6782V71.6782H66.4901V65.6782H60.4901ZM60.4901 63.0835H66.4901V57.0835H60.4901V63.0835ZM24.1621 65.6787V59.6787H18.1621V65.6787H24.1621ZM29.3515 65.6787H35.3515V59.6787H29.3515V65.6787ZM29.3515 70.8677H23.3515V76.8443L29.3281 76.8676L29.3515 70.8677ZM29.3535 70.8677H35.3535V64.8911L29.3769 64.8677L29.3535 70.8677ZM29.3535 78.6518V84.6518H35.3535V78.6518H29.3535ZM24.1641 78.6518H18.1641V84.6518H24.1641V78.6518ZM24.1641 70.8677H30.1641V64.8911L24.1875 64.8677L24.1641 70.8677ZM24.1621 70.8677H18.1621V76.8443L24.1387 76.8676L24.1621 70.8677ZM31.9473 68.2734H25.9473V74.2734H31.9473V68.2734ZM31.9473 65.6787V59.6787H25.9473V65.6787H31.9473ZM60.4891 68.2734V74.2734H66.4891V68.2734H60.4891ZM60.4891 65.6787H66.4891V59.6787H60.4891V65.6787ZM31.9473 68.2734V62.2734H25.9473V68.2734H31.9473ZM31.9473 76.0571H25.9473V82.0571H31.9473V76.0571ZM42.3262 76.0571H48.3262V70.0571H42.3262V76.0571ZM42.3262 76.0576V82.0576H48.3262V76.0576H42.3262ZM31.9473 76.0576V70.0576H25.9473V76.0576H31.9473ZM31.9473 83.8413H25.9473V89.8413H31.9473V83.8413ZM60.4891 83.8413V89.8413H66.4891V83.8413H60.4891ZM60.4891 76.0576H66.4891V70.0576H60.4891V76.0576ZM44.9209 76.0576H38.9209V82.0576H44.9209V76.0576ZM44.9209 76.0571V70.0571H38.9209V76.0571H44.9209ZM60.4891 76.0571V82.0571H66.4891V76.0571H60.4891ZM60.4891 68.2734H66.4891V62.2734H60.4891V68.2734ZM24.1621 78.6523V72.6523H18.1621V78.6523H24.1621ZM24.1621 81.2471H18.1621V87.2471H24.1621V81.2471ZM29.3515 78.6523H35.3515V72.6523H29.3515V78.6523ZM29.3515 81.2466H23.3515V87.2466H29.3515V81.2466ZM29.3535 81.2466H35.3535V75.2466H29.3535V81.2466ZM29.3535 83.8413V89.8413H35.3535V83.8413H29.3535ZM24.1641 83.8413H18.1641V89.8413H24.1641V83.8413ZM24.1641 81.2471H30.1641V75.2471H24.1641V81.2471ZM47.5156 8.59473V2.59473H41.5156V8.59473H47.5156ZM47.5156 11.1894H41.5156V17.1894H47.5156V11.1894ZM50.1103 8.59473H56.1103V2.59473H50.1103V8.59473ZM50.1103 11.1894V17.1894H56.1103V11.1894H50.1103ZM63.084 8.59473V2.59473H57.084V8.59473H63.084ZM65.6787 8.59473H71.6787V2.59473H65.6787V8.59473ZM63.084 11.1894H57.084V17.1894H63.084V11.1894ZM65.6787 11.1894V17.1894H71.6787V11.1894H65.6787ZM47.5146 11.1895H53.5146V5.18945H47.5146V11.1895ZM44.9199 11.1895V5.18945H38.9199V11.1895H44.9199ZM47.5146 13.7842V19.7842H53.5146V13.7842H47.5146ZM44.9199 13.7842H38.9199V19.7842H44.9199V13.7842ZM57.8945 11.1895V5.18945H51.8945V11.1895H57.8945ZM63.084 11.1895H69.084V5.18945H63.084V11.1895ZM57.8945 13.7842H51.8945V19.7842H57.8945V13.7842ZM63.084 13.7842V19.7842H69.084V13.7842H63.084ZM21.5693 13.7842H27.5693V7.78418H21.5693V13.7842ZM18.9746 13.7842V7.78418H12.9746V13.7842H18.9746ZM21.5693 16.3789V22.3789H27.5693V16.3789H21.5693ZM18.9746 16.3789H12.9746V22.3789H18.9746V16.3789ZM24.1641 13.7837V7.78369H18.1641V13.7837H24.1641ZM26.7588 13.7837H32.7588V7.78369H26.7588V13.7837ZM24.1641 16.3784H18.1641V22.3784H24.1641V16.3784ZM26.7588 16.3784V22.3784H32.7588V16.3784H26.7588ZM31.9482 13.7837H37.9482V7.78369H31.9482V13.7837ZM29.3535 13.7837V7.78369H23.3535V13.7837H29.3535ZM31.9482 16.3784V22.3784H37.9482V16.3784H31.9482ZM29.3535 16.3784H23.3535V22.3784H29.3535V16.3784ZM44.9199 16.3789H38.9199V22.3789H44.9199V16.3789ZM44.9199 13.7842V7.78418H38.9199V13.7842H44.9199ZM47.5146 16.3789V22.3789H53.5146V16.3789H47.5146ZM47.5146 13.7842H53.5146V7.78418H47.5146V13.7842ZM57.8945 13.7842H63.8945V7.78418H57.8945V13.7842ZM52.7051 13.7842V7.78418H46.7051V13.7842H52.7051ZM57.8945 16.3789V22.3789H63.8945V16.3789H57.8945ZM52.7051 16.3789H46.7051V22.3789H52.7051V16.3789ZM16.3789 16.3789V10.3789H10.3789V16.3789H16.3789ZM18.9736 16.3789H24.9736V10.3789H18.9736V16.3789ZM16.3789 18.9736H10.3789V24.9736H16.3789V18.9736ZM18.9736 18.9736V24.9736H24.9736V18.9736H18.9736ZM18.9746 16.3789V10.3789H12.9746V16.3789H18.9746ZM26.7568 16.3789H32.7568V10.3789H26.7568V16.3789ZM26.7568 18.9736V24.9736H32.7568V18.9736H26.7568ZM18.9746 18.9736H12.9746V24.9736H18.9746V18.9736ZM26.7578 16.3789V10.3789H20.7578V16.3789H26.7578ZM26.7578 18.9736H20.7578V24.9736H26.7578V18.9736ZM31.9463 18.9736V24.9736H37.9463V18.9736H31.9463ZM31.9463 16.3789H37.9463V10.3789H31.9463V16.3789ZM31.9473 16.3789V10.3789H25.9473V16.3789H31.9473ZM34.542 16.3789H40.542V10.3789H34.542V16.3789ZM31.9473 18.9736H25.9473V24.9736H31.9473V18.9736ZM34.542 18.9736V24.9736H40.542V18.9736H34.542ZM44.9199 16.3789H50.9199V10.3789H44.9199V16.3789ZM39.7305 16.3789V10.3789H33.7305V16.3789H39.7305ZM44.9199 18.9736V24.9736H50.9199V18.9736H44.9199ZM39.7305 18.9736H33.7305V24.9736H39.7305V18.9736ZM13.7852 18.9736V12.9736H7.78516V18.9736H13.7852ZM13.7852 21.5683H7.78516V27.5683H13.7852V21.5683ZM21.5674 21.5683V27.5683H27.5674V21.5683H21.5674ZM21.5674 18.9736H27.5674V12.9736H21.5674V18.9736ZM21.5684 18.9736V12.9736H15.5684V18.9736H21.5684ZM21.5684 21.5683H15.5684V27.5683H21.5684V21.5683ZM26.7578 18.9736H32.7578V12.9736H26.7578V18.9736ZM26.7578 21.5683V27.5683H32.7578V21.5683H26.7578ZM26.7578 21.5683H20.7578V27.5683H26.7578V21.5683ZM26.7578 18.9736V12.9736H20.7578V18.9736H26.7578ZM42.3252 21.5683V27.5683H48.3252V21.5683H42.3252ZM42.3252 18.9736H48.3252V12.9736H42.3252V18.9736ZM42.3262 21.5683H36.3262V27.5683H42.3262V21.5683ZM42.3262 18.9736V12.9736H36.3262V18.9736H42.3262ZM57.8945 21.5683V27.5683H63.8945V21.5683H57.8945ZM57.8945 18.9736H63.8945V12.9736H57.8945V18.9736ZM63.084 18.9736H69.084V12.9736H63.084V18.9736ZM57.8945 18.9736V12.9736H51.8945V18.9736H57.8945ZM63.084 21.5683V27.5683H69.084V21.5683H63.084ZM57.8945 21.5683H51.8945V27.5683H57.8945V21.5683ZM11.1895 21.5684V15.5684H5.18945V21.5684H11.1895ZM13.7842 21.5684H19.7842V15.5684H13.7842V21.5684ZM11.1895 24.1631H5.18945V30.1631H11.1895V24.1631ZM13.7842 24.1631V30.1631H19.7842V24.1631H13.7842ZM13.7852 21.5684V15.5684H7.78516V21.5684H13.7852ZM18.9736 21.5684H24.9736V15.5684H18.9736V21.5684ZM18.9736 24.1631V30.1631H24.9736V24.1631H18.9736ZM13.7852 24.1631H7.78516V30.1631H13.7852V24.1631ZM18.9746 21.5684V15.5684H12.9746V21.5684H18.9746ZM18.9746 24.1631H12.9746V30.1631H18.9746V24.1631ZM24.164 21.5684H30.164V15.5684H24.164V21.5684ZM24.164 24.1631V30.1631H30.164V24.1631H24.164ZM24.1641 24.1631H18.1641V30.1631H24.1641V24.1631ZM24.1641 21.5684V15.5684H18.1641V21.5684H24.1641ZM29.3535 24.1631V30.1631H35.3535V24.1631H29.3535ZM29.3535 21.5684H35.3535V15.5684H29.3535V21.5684ZM29.3535 21.5684V15.5684H23.3535V21.5684H29.3535ZM29.3535 24.1631H23.3535V30.1631H29.3535V24.1631ZM47.5146 21.5684H53.5146V15.5684H47.5146V21.5684ZM47.5146 24.1631V30.1631H53.5146V24.1631H47.5146ZM47.5156 21.5684V15.5684H41.5156V21.5684H47.5156ZM47.5156 24.1631H41.5156V30.1631H47.5156V24.1631ZM55.2998 21.5684H61.2998V15.5684H55.2998V21.5684ZM55.2998 24.1631V30.1631H61.2998V24.1631H55.2998ZM55.3008 21.5684V15.5684H49.3008V21.5684H55.3008ZM55.3008 26.7573H49.3008V32.7573H55.3008V26.7573ZM60.4883 26.7573H66.4883V20.7573H60.4883V26.7573ZM60.4883 26.7578H54.4883V32.7578H60.4883V26.7578ZM63.083 26.7578V32.7578H69.083V26.7578H63.083ZM63.083 24.1631H69.083V18.1631L63.083 18.1631L63.083 24.1631ZM60.4902 24.1631H54.4902V30.163L60.4902 30.1631L60.4902 24.1631ZM60.4902 21.5684H66.4902V15.5684H60.4902V21.5684ZM63.084 24.1631H57.084V30.1631H63.084V24.1631ZM63.084 21.5684V15.5684H57.084V21.5684H63.084ZM68.2734 24.1631V30.1631H74.2734V24.1631H68.2734ZM68.2734 21.5684H74.2734V15.5684H68.2734V21.5684ZM11.1895 24.1631V18.1631H5.18945V24.1631H11.1895ZM11.1895 26.7578H5.18945V32.7578H11.1895V26.7578ZM13.7842 24.1631H19.7842V18.1631H13.7842V24.1631ZM13.7842 26.7578V32.7578H19.7842V26.7578H13.7842ZM13.7852 26.7578H7.78516V32.7578H13.7852V26.7578ZM13.7852 24.1631V18.1631H7.78516V24.1631H13.7852ZM18.9736 26.7578V32.7578H24.9736V26.7578H18.9736ZM18.9736 24.1631H24.9736V18.1631H18.9736V24.1631ZM18.9746 26.7578H12.9746V32.7578H18.9746V26.7578ZM18.9746 24.1631V18.1631H12.9746V24.1631H18.9746ZM26.7578 26.7578V32.7578H32.7578V26.7578H26.7578ZM26.7578 24.1631H32.7578V18.1631H26.7578V24.1631ZM26.7578 26.7578H20.7578V32.7578H26.7578V26.7578ZM26.7578 24.1631V18.1631H20.7578V24.1631H26.7578ZM42.3261 26.7578V32.7578H48.3261V26.7578H42.3261ZM42.3261 24.1631H48.3261V18.1631H42.3261V24.1631ZM42.3262 24.1631V18.1631H36.3262V24.1631H42.3262ZM42.3262 26.7578H36.3262V32.7578H42.3262V26.7578ZM47.5146 24.1631H53.5146V18.1631H47.5146V24.1631ZM47.5146 26.7578V32.7578H53.5146V26.7578H47.5146ZM47.5156 24.1631V18.1631H41.5156V24.1631H47.5156ZM47.5156 26.7578H41.5156V32.7578H47.5156V26.7578ZM55.2998 24.1631H61.2998V18.1631H55.2998V24.1631ZM55.2998 26.7578V32.7578H61.2998V26.7578H55.2998ZM63.084 24.1631V18.1631H57.084V24.1631H63.084ZM63.084 26.7578H57.084V32.7578H63.084V26.7578ZM70.8681 24.1631H76.8681V18.1631H70.8681V24.1631ZM70.8681 26.7578V32.7578H76.8681V26.7578H70.8681ZM6 29.3525H0V35.3525H6V29.3525ZM6 26.7578V20.7578H0V26.7578H6ZM78.652 29.3525V35.3525H84.652V29.3525H78.652ZM78.652 26.7578H84.652V20.7578H78.652V26.7578ZM8.5957 29.3525V23.3525H2.5957V29.3525H8.5957ZM76.0583 29.3525H82.0583V23.3525H76.0583V29.3525ZM76.0583 34.542V40.542H82.0583V34.542H76.0583ZM73.4626 34.542H79.4626V28.542L73.4626 28.542L73.4626 34.542ZM73.4626 37.1367V43.1367H79.4626V37.1367H73.4626ZM11.1895 37.1367H5.18945V43.1367H11.1895V37.1367ZM11.1895 34.542V28.542H5.18945V34.542H11.1895ZM29.3535 34.542V40.542H30.0921L30.8087 40.3628L29.3535 34.542ZM29.3535 34.542L30.8087 40.3628L29.3535 28.542V34.542ZM8.5957 34.542H2.5957V40.542H8.5957V34.542ZM11.1895 39.7314H5.18945V45.7314H11.1895V39.7314ZM11.1895 37.1367V31.1367H5.18945V37.1367H11.1895ZM29.3535 39.7314L29.3535 33.7314H29.3535V39.7314ZM13.7852 39.7314V33.7314H7.78516V39.7314H13.7852ZM13.7852 44.9204H7.78516V50.9204H13.7852V44.9204ZM16.3789 44.9204L16.3789 38.9204L10.3789 38.9204V44.9204H16.3789ZM16.3789 47.5151H10.3789V53.5151H16.3789V47.5151ZM68.2732 47.5151V53.5151H74.2732V47.5151H68.2732ZM68.2732 44.9204H74.2732V38.9204L68.2732 38.9204L68.2732 44.9204ZM70.8689 44.9204V50.9204H76.8689V44.9204H70.8689ZM70.8689 39.7314H76.8689V33.7315L70.8689 33.7314L70.8689 39.7314ZM73.4626 39.7314V45.7314H79.4626V39.7314H73.4626ZM73.4626 37.1367H79.4626V31.1367H73.4626V37.1367ZM18.9746 50.1103H12.9746V56.1103H18.9746V50.1103ZM18.9746 47.5156V41.5156H12.9746V47.5156H18.9746ZM21.5684 50.1103H27.5684V44.1103H21.5684V50.1103ZM21.5684 52.7046H15.5684V58.7046H21.5684V52.7046ZM63.0838 52.7046V58.7046H69.0838V52.7046H63.0838ZM63.0838 50.1103V44.1103H57.0838V50.1103H63.0838ZM65.6796 50.1103V56.1103H71.6796V50.1103H65.6796ZM65.6796 47.5156H71.6796V41.5156H65.6796V47.5156ZM55.3008 47.5156V41.5156H49.3008V47.5156H55.3008ZM55.3008 50.1099V56.1099H61.3008V50.1099H55.3008ZM55.2997 50.1099H49.2997V56.1099H55.2997V50.1099ZM55.2997 47.5156H61.2997V41.5156H55.2997V47.5156ZM26.7578 55.2993H20.7578V61.2993H26.7578V55.2993ZM26.7578 52.7046V46.7046H20.7578V52.7046H26.7578ZM57.8944 55.2993V61.2993H63.8944V55.2993H57.8944ZM57.8944 52.7046H63.8944V46.7046H57.8944V52.7046ZM52.7041 18.9736V24.9736H58.7041V18.9736H52.7041ZM44.9199 18.9736H38.9199V24.9736H44.9199V18.9736ZM52.7041 16.3789H58.7041V10.3789H52.7041V16.3789ZM44.9199 16.3789V10.3789H38.9199V16.3789H44.9199ZM60.4892 16.3789H66.4892V10.3789H60.4892V16.3789ZM52.7051 16.3789V10.3789H46.7051V16.3789H52.7051ZM60.4892 18.9736V24.9736H66.4892V18.9736H60.4892ZM52.7051 18.9736H46.7051V24.9736H52.7051V18.9736ZM47.5156 12H50.1103V0H47.5156V12ZM53.5156 8.59472V6H41.5156V8.59472H53.5156ZM50.1103 2.59472H47.5156V14.5947H50.1103V2.59472ZM44.1103 6V8.59472H56.1103V6H44.1103ZM54.4881 55.2993V57.894H66.4881V55.2993H54.4881ZM24.1621 61.2993H60.4881V49.2993H24.1621V61.2993ZM30.1621 57.894V55.2993H18.1621V57.894H30.1621ZM60.4881 51.894H24.1621V63.894H60.4881V51.894ZM40.543 57.8945V57.894H28.543V57.8945H40.543ZM24.1641 63.8945H34.543V51.8945H24.1641V63.8945ZM30.1641 60.4888V57.8945H18.1641V60.4888H30.1641ZM30.1641 60.4892V60.4888H18.1641V60.4892H30.1641ZM30.1641 63.0835V60.4892H18.1641V63.0835H30.1641ZM31.9473 57.0835H24.1641V69.0835H31.9473V57.0835ZM39.7314 57.0835H31.9473V69.0835H39.7314V57.0835ZM42.3262 57.0835H39.7314V69.0835H42.3262V57.0835ZM44.9209 57.0835H42.3262V69.0835H44.9209V57.0835ZM50.1113 57.0835H44.9209V69.0835H50.1113V57.0835ZM52.706 57.0835H50.1113V69.0835H52.706V57.0835ZM60.4901 57.0835H52.706V69.0835H60.4901V57.0835ZM54.4901 60.4892V63.0835H66.4901V60.4892H54.4901ZM54.4901 60.4888V60.4892H66.4901V60.4888H54.4901ZM54.4901 57.8945V60.4888H66.4901V57.8945H54.4901ZM37.1377 63.8945H60.4901V51.8945H37.1377V63.8945ZM31.1377 57.894V57.8945H43.1377V57.894H31.1377ZM34.543 63.894H37.1377V51.894H34.543V63.894ZM30.1641 65.6782V63.0835H18.1641V65.6782H30.1641ZM34.541 59.6782H24.1641V71.6782H34.541V59.6782ZM37.1357 59.6782H34.541V71.6782H37.1357V59.6782ZM42.3262 59.6782H37.1357V71.6782H42.3262V59.6782ZM44.9209 59.6782H42.3262V71.6782H44.9209V59.6782ZM60.4901 59.6782H44.9209V71.6782H60.4901V59.6782ZM54.4901 63.0835V65.6782H66.4901V63.0835H54.4901ZM44.9209 69.0835H60.4901V57.0835H44.9209V69.0835ZM42.3262 69.0835H44.9209V57.0835H42.3262V69.0835ZM37.1357 69.0835H42.3262V57.0835H37.1357V69.0835ZM34.541 69.0835H37.1357V57.0835H34.541V69.0835ZM24.1641 69.0835H34.541V57.0835H24.1641V69.0835ZM18.1621 65.6787V68.2729H30.1621V65.6787H18.1621ZM29.3515 59.6787H24.1621V71.6787H29.3515V59.6787ZM35.3515 68.2729V65.6787H23.3515V68.2729H35.3515ZM35.3515 68.2734V68.2729H23.3515V68.2734H35.3515ZM35.3515 70.8677V68.2734H23.3515V70.8677H35.3515ZM29.3769 64.8677L29.375 64.8677L29.3281 76.8676L29.3301 76.8676L29.3769 64.8677ZM35.3535 73.4624V70.8677H23.3535V73.4624H35.3535ZM35.3535 76.0571V73.4624H23.3535V76.0571H35.3535ZM35.3535 78.6518V76.0571H23.3535V78.6518H35.3535ZM24.1641 84.6518H29.3535V72.6518H24.1641V84.6518ZM18.1641 76.0571V78.6518H30.1641V76.0571H18.1641ZM18.1641 73.4624V76.0571H30.1641V73.4624H18.1641ZM18.1641 70.8677V73.4624H30.1641V70.8677H18.1641ZM24.1387 76.8676L24.1406 76.8676L24.1875 64.8677L24.1855 64.8677L24.1387 76.8676ZM18.1621 68.2734V70.8677H30.1621V68.2734H18.1621ZM18.1621 68.2729V68.2734H30.1621V68.2729H18.1621ZM37.9473 68.2734V65.6787H25.9473V68.2734H37.9473ZM39.7305 62.2734H31.9473V74.2734H39.7305V62.2734ZM47.5146 62.2734H39.7305V74.2734H47.5146V62.2734ZM60.4891 62.2734H47.5146V74.2734H60.4891V62.2734ZM54.4891 65.6787V68.2734H66.4891V65.6787H54.4891ZM47.5146 71.6787H60.4891V59.6787H47.5146V71.6787ZM39.7305 71.6787H47.5146V59.6787H39.7305V71.6787ZM31.9473 71.6787H39.7305V59.6787H31.9473V71.6787ZM37.9473 70.8677V68.2734H25.9473V70.8677H37.9473ZM37.9473 70.8682V70.8677H25.9473V70.8682H37.9473ZM37.9473 73.4624V70.8682H25.9473V73.4624H37.9473ZM37.9473 76.0571V73.4624H25.9473V76.0571H37.9473ZM42.3262 70.0571H31.9473V82.0571H42.3262V70.0571ZM48.3262 76.0576V76.0571H36.3262V76.0576H48.3262ZM31.9473 82.0576H42.3262V70.0576H31.9473V82.0576ZM37.9473 78.6519V76.0576H25.9473V78.6519H37.9473ZM37.9473 78.6523V78.6519H25.9473V78.6523H37.9473ZM37.9473 81.2466V78.6523H25.9473V81.2466H37.9473ZM37.9473 83.8413V81.2466H25.9473V83.8413H37.9473ZM60.4891 77.8413H31.9473V89.8413H60.4891V77.8413ZM54.4891 81.2466V83.8413H66.4891V81.2466H54.4891ZM54.4891 78.6523V81.2466H66.4891V78.6523H54.4891ZM54.4891 78.6519V78.6523H66.4891V78.6519H54.4891ZM54.4891 76.0576V78.6519H66.4891V76.0576H54.4891ZM44.9209 82.0576H60.4891V70.0576H44.9209V82.0576ZM38.9209 76.0571V76.0576H50.9209V76.0571H38.9209ZM60.4891 70.0571H44.9209V82.0571H60.4891V70.0571ZM54.4891 73.4624V76.0571H66.4891V73.4624H54.4891ZM54.4891 70.8682V73.4624H66.4891V70.8682H54.4891ZM54.4891 70.8677V70.8682H66.4891V70.8677H54.4891ZM54.4891 68.2734V70.8677H66.4891V68.2734H54.4891ZM52.704 74.2734H60.4891V62.2734H52.704V74.2734ZM34.541 74.2734H52.704V62.2734H34.541V74.2734ZM31.9473 74.2734H34.541V62.2734H31.9473V74.2734ZM18.1621 78.6523V81.2471H30.1621V78.6523H18.1621ZM29.3515 72.6523H24.1621V84.6523H29.3515V72.6523ZM35.3515 81.2466V78.6523H23.3515V81.2466H35.3515ZM29.3535 75.2466H29.3515V87.2466H29.3535V75.2466ZM35.3535 83.8413V81.2466H23.3535V83.8413H35.3535ZM24.1641 89.8413H29.3535V77.8413H24.1641V89.8413ZM18.1641 81.2471V83.8413H30.1641V81.2471H18.1641ZM24.1621 87.2471H24.1641V75.2471H24.1621V87.2471ZM41.5156 8.59473V11.1894H53.5156V8.59473H41.5156ZM50.1103 2.59473H47.5156V14.5947H50.1103V2.59473ZM56.1103 11.1894V8.59473H44.1103V11.1894H56.1103ZM47.5156 17.1894H50.1103V5.18944H47.5156V17.1894ZM63.084 14.5947H65.6787V2.59473H63.084V14.5947ZM69.084 11.1894V8.59473H57.084V11.1894H69.084ZM65.6787 5.18944H63.084V17.1894H65.6787V5.18944ZM59.6787 8.59473V11.1894H71.6787V8.59473H59.6787ZM47.5146 5.18945H44.9199V17.1895H47.5146V5.18945ZM53.5146 13.7842V11.1895H41.5146V13.7842H53.5146ZM44.9199 19.7842H47.5146V7.78417H44.9199V19.7842ZM38.9199 11.1895V13.7842H50.9199V11.1895H38.9199ZM57.8945 17.1895H63.084V5.18945H57.8945V17.1895ZM63.8945 13.7842V11.1895H51.8945V13.7842H63.8945ZM63.084 7.78417H57.8945V19.7842H63.084V7.78417ZM57.084 11.1895V13.7842H69.084V11.1895H57.084ZM21.5693 7.78418H18.9746V19.7842H21.5693V7.78418ZM27.5693 16.3789V13.7842H15.5693V16.3789H27.5693ZM18.9746 22.3789H21.5693V10.3789H18.9746V22.3789ZM12.9746 13.7842V16.3789H24.9746V13.7842H12.9746ZM24.1641 19.7837H26.7588V7.78369H24.1641V19.7837ZM30.1641 16.3784V13.7837H18.1641V16.3784H30.1641ZM26.7588 10.3784H24.1641V22.3784H26.7588V10.3784ZM20.7588 13.7837V16.3784H32.7588V13.7837H20.7588ZM31.9482 7.78369H29.3535V19.7837H31.9482V7.78369ZM37.9482 16.3784V13.7837H25.9482V16.3784H37.9482ZM29.3535 22.3784H31.9482V10.3784H29.3535V22.3784ZM23.3535 13.7837V16.3784H35.3535V13.7837H23.3535ZM50.9199 16.3789V13.7842H38.9199V16.3789H50.9199ZM47.5146 10.3789H44.9199V22.3789H47.5146V10.3789ZM41.5146 13.7842V16.3789H53.5146V13.7842H41.5146ZM44.9199 19.7842H47.5146V7.78418H44.9199V19.7842ZM57.8945 7.78418H52.7051V19.7842H57.8945V7.78418ZM63.8945 16.3789V13.7842H51.8945V16.3789H63.8945ZM52.7051 22.3789H57.8945V10.3789H52.7051V22.3789ZM46.7051 13.7842V16.3789H58.7051V13.7842H46.7051ZM16.3789 22.3789H18.9736V10.3789H16.3789V22.3789ZM22.3789 18.9736V16.3789H10.3789V18.9736H22.3789ZM18.9736 12.9736H16.3789V24.9736H18.9736V12.9736ZM12.9736 16.3789V18.9736H24.9736V16.3789H12.9736ZM21.5684 10.3789H18.9746V22.3789H21.5684V10.3789ZM21.5693 10.3789H21.5684V22.3789H21.5693V10.3789ZM24.1621 10.3789H21.5693V22.3789H24.1621V10.3789ZM24.1631 10.3789H24.1621V22.3789H24.1631V10.3789ZM26.7568 10.3789H24.1631V22.3789H26.7568V10.3789ZM32.7568 18.9736V16.3789H20.7568V18.9736H32.7568ZM24.1631 24.9736H26.7568V12.9736H24.1631V24.9736ZM24.1621 24.9736H24.1631V12.9736H24.1621V24.9736ZM21.5693 24.9736H24.1621V12.9736H21.5693V24.9736ZM21.5684 24.9736H21.5693V12.9736H21.5684V24.9736ZM18.9746 24.9736H21.5684V12.9736H18.9746V24.9736ZM12.9746 16.3789V18.9736H24.9746V16.3789H12.9746ZM26.7578 22.3789H29.3516V10.3789H26.7578V22.3789ZM32.7578 18.9736V16.3789H20.7578V18.9736H32.7578ZM29.3516 12.9736H26.7578V24.9736H29.3516V12.9736ZM29.3525 12.9736H29.3516V24.9736H29.3525V12.9736ZM31.9463 12.9736H29.3525V24.9736H31.9463V12.9736ZM25.9463 16.3789V18.9736H37.9463V16.3789H25.9463ZM29.3525 22.3789H31.9463V10.3789H29.3525V22.3789ZM29.3516 22.3789H29.3525V10.3789H29.3516V22.3789ZM31.9473 22.3789H34.542V10.3789H31.9473V22.3789ZM37.9473 18.9736V16.3789H25.9473V18.9736H37.9473ZM34.542 12.9736H31.9473V24.9736H34.542V12.9736ZM28.542 16.3789V18.9736H40.542V16.3789H28.542ZM44.9199 10.3789H39.7305V22.3789H44.9199V10.3789ZM50.9199 18.9736V16.3789H38.9199V18.9736H50.9199ZM39.7305 24.9736H44.9199V12.9736H39.7305V24.9736ZM33.7305 16.3789V18.9736H45.7305V16.3789H33.7305ZM13.7852 24.9736H16.3789V12.9736H13.7852V24.9736ZM19.7852 21.5683V18.9736H7.78516V21.5683H19.7852ZM16.3789 15.5683H13.7852V27.5683H16.3789V15.5683ZM16.3799 15.5683H16.3789V27.5683H16.3799V15.5683ZM18.9727 15.5683H16.3799V27.5683H18.9727V15.5683ZM18.9736 15.5683H18.9727V27.5683H18.9736V15.5683ZM21.5674 15.5683H18.9736V27.5683H21.5674V15.5683ZM15.5674 18.9736V21.5683H27.5674V18.9736H15.5674ZM18.9736 24.9736H21.5674V12.9736H18.9736V24.9736ZM18.9727 24.9736H18.9736V12.9736H18.9727V24.9736ZM16.3799 24.9736H18.9727V12.9736H16.3799V24.9736ZM16.3789 24.9736H16.3799V12.9736H16.3789V24.9736ZM15.5684 18.9736V21.5683H27.5684V18.9736H15.5684ZM26.7578 12.9736H21.5684V24.9736H26.7578V12.9736ZM32.7578 21.5683V18.9736H20.7578V21.5683H32.7578ZM21.5684 27.5683H26.7578V15.5683H21.5684V27.5683ZM32.7578 21.5683V18.9736H20.7578V21.5683H32.7578ZM34.541 15.5683H26.7578V27.5683H34.541V15.5683ZM34.542 15.5683H34.541V27.5683H34.542V15.5683ZM42.3252 15.5683H34.542V27.5683H42.3252V15.5683ZM36.3252 18.9736V21.5683H48.3252V18.9736H36.3252ZM34.542 24.9736H42.3252V12.9736H34.542V24.9736ZM34.541 24.9736H34.542V12.9736H34.541V24.9736ZM26.7578 24.9736H34.541V12.9736H26.7578V24.9736ZM48.3262 21.5683V18.9736H36.3262V21.5683H48.3262ZM57.8945 15.5683H42.3262V27.5683H57.8945V15.5683ZM51.8945 18.9736V21.5683H63.8945V18.9736H51.8945ZM42.3262 24.9736H57.8945V12.9736H42.3262V24.9736ZM63.084 12.9736H57.8945V24.9736H63.084V12.9736ZM69.084 21.5683V18.9736H57.084V21.5683H69.084ZM57.8945 27.5683H63.084V15.5683H57.8945V27.5683ZM51.8945 18.9736V21.5683H63.8945V18.9736H51.8945ZM11.1895 27.5684H13.7842V15.5684H11.1895V27.5684ZM17.1895 24.1631V21.5684H5.18945V24.1631H17.1895ZM13.7842 18.1631H11.1895V30.1631H13.7842V18.1631ZM7.78417 21.5684V24.1631H19.7842V21.5684H7.78417ZM16.3789 15.5684H13.7852V27.5684H16.3789V15.5684ZM16.3799 15.5684H16.3789V27.5684H16.3799V15.5684ZM18.9736 15.5684H16.3799V27.5684H18.9736V15.5684ZM24.9736 24.1631V21.5684H12.9736V24.1631H24.9736ZM16.3799 30.1631H18.9736V18.1631H16.3799V30.1631ZM16.3789 30.1631H16.3799V18.1631H16.3789V30.1631ZM13.7852 30.1631H16.3789V18.1631H13.7852V30.1631ZM7.78516 21.5684V24.1631H19.7852V21.5684H7.78516ZM12.9746 21.5684V24.1631H24.9746V21.5684H12.9746ZM24.164 15.5684H18.9746V27.5684H24.164V15.5684ZM30.164 24.1631V21.5684H18.164V24.1631H30.164ZM18.9746 30.1631H24.164V18.1631H18.9746V30.1631ZM30.1641 24.1631V21.5684H18.1641V24.1631H30.1641ZM29.3535 18.1631H24.1641V30.1631H29.3535V18.1631ZM23.3535 21.5684V24.1631H35.3535V21.5684H23.3535ZM24.1641 27.5684H29.3535V15.5684H24.1641V27.5684ZM23.3535 21.5684V24.1631H35.3535V21.5684H23.3535ZM39.7305 15.5684H29.3535V27.5684H39.7305V15.5684ZM39.7324 15.5684H39.7305V27.5684H39.7324V15.5684ZM47.5146 15.5684H39.7324V27.5684H47.5146V15.5684ZM53.5146 24.1631V21.5684H41.5146V24.1631H53.5146ZM39.7324 30.1631H47.5146V18.1631H39.7324V30.1631ZM39.7305 30.1631H39.7324V18.1631H39.7305V30.1631ZM29.3535 30.1631H39.7305V18.1631H29.3535V30.1631ZM41.5156 21.5684V24.1631H53.5156V21.5684H41.5156ZM55.2998 15.5684H47.5156V27.5684H55.2998V15.5684ZM61.2998 24.1631V21.5684H49.2998V24.1631H61.2998ZM47.5156 30.1631H55.2998V18.1631H47.5156V30.1631ZM61.3008 24.1626V21.5684H49.3008V24.1626H61.3008ZM61.3008 24.1631V24.1626H49.3008V24.1631H61.3008ZM61.3008 26.7573V24.1631H49.3008V26.7573H61.3008ZM57.8945 20.7573H55.3008V32.7573H57.8945V20.7573ZM57.8955 20.7573H57.8945V32.7573H57.8955V20.7573ZM60.4883 20.7573H57.8955V32.7573H60.4883V20.7573ZM66.4883 26.7578V26.7573H54.4883V26.7578H66.4883ZM63.083 20.7578H60.4883V32.7578H63.083V20.7578ZM57.083 24.1631V26.7578H69.083V24.1631H57.083ZM60.4902 30.1631L63.083 30.1631L63.083 18.1631L60.4902 18.1631L60.4902 30.1631ZM54.4902 21.5684V24.1631H66.4902V21.5684H54.4902ZM55.3008 27.5684H60.4902V15.5684H55.3008V27.5684ZM69.084 24.1631V21.5684H57.084V24.1631H69.084ZM68.2734 18.1631H63.084V30.1631H68.2734V18.1631ZM62.2734 21.5684V24.1631H74.2734V21.5684H62.2734ZM63.084 27.5684H68.2734V15.5684H63.084V27.5684ZM5.18945 24.1631V26.7578H17.1895V24.1631H5.18945ZM13.7842 18.1631H11.1895V30.1631H13.7842V18.1631ZM19.7842 26.7578V24.1631H7.78417V26.7578H19.7842ZM11.1895 32.7578H13.7842V20.7578H11.1895V32.7578ZM19.7852 26.7578V24.1631H7.78516V26.7578H19.7852ZM16.3789 20.7578H13.7852V32.7578H16.3789V20.7578ZM16.3799 20.7578H16.3789V32.7578H16.3799V20.7578ZM18.9736 20.7578H16.3799V32.7578H18.9736V20.7578ZM12.9736 24.1631V26.7578H24.9736V24.1631H12.9736ZM16.3799 30.1631H18.9736V18.1631H16.3799V30.1631ZM16.3789 30.1631H16.3799V18.1631H16.3789V30.1631ZM13.7852 30.1631H16.3789V18.1631H13.7852V30.1631ZM24.9746 26.7578V24.1631H12.9746V26.7578H24.9746ZM21.5684 20.7578H18.9746V32.7578H21.5684V20.7578ZM21.5693 20.7578H21.5684V32.7578H21.5693V20.7578ZM26.7578 20.7578H21.5693V32.7578H26.7578V20.7578ZM20.7578 24.1631V26.7578H32.7578V24.1631H20.7578ZM21.5693 30.1631H26.7578V18.1631H21.5693V30.1631ZM21.5684 30.1631H21.5693V18.1631H21.5684V30.1631ZM18.9746 30.1631H21.5684V18.1631H18.9746V30.1631ZM32.7578 26.7578V24.1631H20.7578V26.7578H32.7578ZM42.3261 20.7578H26.7578V32.7578H42.3261V20.7578ZM36.3261 24.1631V26.7578H48.3261V24.1631H36.3261ZM26.7578 30.1631H42.3261V18.1631H26.7578V30.1631ZM36.3262 24.1631V26.7578H48.3262V24.1631H36.3262ZM44.9199 18.1631H42.3262V30.1631H44.9199V18.1631ZM44.9209 18.1631H44.9199V30.1631H44.9209V18.1631ZM47.5146 18.1631H44.9209V30.1631H47.5146V18.1631ZM53.5146 26.7578V24.1631H41.5146V26.7578H53.5146ZM44.9209 32.7578H47.5146V20.7578H44.9209V32.7578ZM44.9199 32.7578H44.9209V20.7578H44.9199V32.7578ZM42.3262 32.7578H44.9199V20.7578H42.3262V32.7578ZM41.5156 24.1631V26.7578H53.5156V24.1631H41.5156ZM55.2998 18.1631H47.5156V30.1631H55.2998V18.1631ZM61.2998 26.7578V24.1631H49.2998V26.7578H61.2998ZM47.5156 32.7578H55.2998V20.7578H47.5156V32.7578ZM57.084 24.1631V26.7578H69.084V24.1631H57.084ZM70.8681 18.1631H63.084V30.1631H70.8681V18.1631ZM76.8681 26.7578V24.1631H64.8681V26.7578H76.8681ZM63.084 32.7578H70.8681V20.7578H63.084V32.7578ZM12 29.3525V26.7578H0V29.3525H12ZM78.652 23.3525H6V35.3525H78.652V23.3525ZM72.652 26.7578V29.3525H84.652V26.7578H72.652ZM6 32.7578H78.652V20.7578H6V32.7578ZM2.5957 29.3525V31.9473H14.5957V29.3525H2.5957ZM26.7578 23.3525H8.5957V35.3525H26.7578V23.3525ZM42.3261 23.3525H26.7578V35.3525H42.3261V23.3525ZM44.9199 23.3525H42.3261V35.3525H44.9199V23.3525ZM60.4882 23.3525H44.9199V35.3525H60.4882V23.3525ZM76.0583 23.3525H60.4882V35.3525H76.0583V23.3525ZM82.0583 31.9473V29.3525H70.0583V31.9473H82.0583ZM82.0583 34.542V31.9473H70.0583V34.542H82.0583ZM60.4892 40.542H76.0583V28.542H60.4892V40.542ZM73.4626 28.542L60.4893 28.542L60.4892 40.542L73.4626 40.542L73.4626 28.542ZM79.4626 37.1367V34.542H67.4626V37.1367H79.4626ZM57.8945 43.1367H73.4626V31.1367H57.8945V43.1367ZM52.7051 43.1367H57.8945V31.1367H52.7051V43.1367ZM47.5156 43.1367H52.7051V31.1367H47.5156V43.1367ZM29.3535 43.1367H47.5156V31.1367H29.3535V43.1367ZM18.9746 43.1367H29.3535V31.1367H18.9746V43.1367ZM11.1895 43.1367H18.9746V31.1367H11.1895V43.1367ZM5.18945 34.542V37.1367H17.1895V34.542H5.18945ZM18.9746 28.542H11.1895V40.542H18.9746V28.542ZM29.3535 28.542H18.9746V40.542H29.3535V28.542ZM27.8983 28.7211L27.8983 28.7211L30.8087 40.3628L30.8087 40.3628L27.8983 28.7211ZM29.3525 40.542H29.3535V28.542H29.3525V40.542ZM26.7578 40.542H29.3525V28.542H26.7578V40.542ZM8.5957 40.542H26.7578V28.542H8.5957V40.542ZM2.5957 31.9473V34.542H14.5957V31.9473H2.5957ZM17.1895 39.7314V37.1367H5.18945V39.7314H17.1895ZM18.9746 33.7314H11.1895V45.7314H18.9746V33.7314ZM21.5693 33.7314H18.9746V45.7314H21.5693V33.7314ZM26.7578 33.7314H21.5693V45.7314H26.7578V33.7314ZM29.3525 33.7314H26.7578V45.7314H29.3525V33.7314ZM29.3535 33.7314H29.3525V45.7314H29.3535V33.7314ZM34.541 33.7314L29.3535 33.7314L29.3535 45.7314L34.541 45.7314L34.541 33.7314ZM29.3525 45.7314H34.541V33.7314H29.3525V45.7314ZM29.3516 45.7314H29.3525V33.7314H29.3516V45.7314ZM26.7578 45.7314H29.3516V33.7314H26.7578V45.7314ZM21.5693 45.7314H26.7578V33.7314H21.5693V45.7314ZM18.9746 45.7314H21.5693V33.7314H18.9746V45.7314ZM13.7852 45.7314H18.9746V33.7314H13.7852V45.7314ZM19.7852 42.3257V39.7314H7.78516V42.3257H19.7852ZM19.7852 42.3262V42.3257H7.78516V42.3262H19.7852ZM19.7852 44.9204V42.3262H7.78516V44.9204H19.7852ZM26.7578 38.9204H13.7852V50.9204H26.7578V38.9204ZM16.3789 50.9204L26.7578 50.9204L26.7578 38.9204L16.3789 38.9204L16.3789 50.9204ZM22.3789 47.5151V44.9204H10.3789V47.5151H22.3789ZM68.2732 41.5151H16.3789V53.5151H68.2732V41.5151ZM62.2732 44.9204V47.5151H74.2732V44.9204H62.2732ZM60.4882 50.9204L68.2732 50.9204L68.2732 38.9204L60.4882 38.9204L60.4882 50.9204ZM70.8689 38.9204H60.4882V50.9204H70.8689V38.9204ZM64.8689 42.3262V44.9204H76.8689V42.3262H64.8689ZM64.8689 42.3257V42.3262H76.8689V42.3257H64.8689ZM64.8689 39.7314V42.3257H76.8689V39.7314H64.8689ZM60.4892 45.7314L70.8689 45.7314L70.8689 33.7314L60.4893 33.7314L60.4892 45.7314ZM73.4626 33.7314H60.4892V45.7314H73.4626V33.7314ZM67.4626 37.1367V39.7314H79.4626V37.1367H67.4626ZM60.4892 43.1367H73.4626V31.1367H60.4892V43.1367ZM57.8945 43.1367H60.4892V31.1367H57.8945V43.1367ZM52.7051 43.1367H57.8945V31.1367H52.7051V43.1367ZM47.5156 43.1367H52.7051V31.1367H47.5156V43.1367ZM47.5146 43.1367H47.5156V31.1367H47.5146V43.1367ZM44.9199 43.1367H47.5146V31.1367H44.9199V43.1367ZM42.3252 43.1367H44.9199V31.1367H42.3252V43.1367ZM39.7304 43.1367H42.3252V31.1367H39.7304V43.1367ZM34.5429 43.1367H39.7304V31.1367H34.5429V43.1367ZM34.541 43.1367H34.5429V31.1367H34.541V43.1367ZM29.3535 43.1367H34.541V31.1367H29.3535V43.1367ZM29.3525 43.1367H29.3535V31.1367H29.3525V43.1367ZM26.7578 43.1367H29.3525V31.1367H26.7578V43.1367ZM21.5693 43.1367H26.7578V31.1367H21.5693V43.1367ZM18.9746 43.1367H21.5693V31.1367H18.9746V43.1367ZM11.1895 43.1367H18.9746V31.1367H11.1895V43.1367ZM24.9746 50.1103V47.5156H12.9746V50.1103H24.9746ZM21.5684 44.1103H18.9746V56.1103H21.5684V44.1103ZM27.5684 52.7046V50.1103H15.5684V52.7046H27.5684ZM63.0838 46.7046H21.5684V58.7046H63.0838V46.7046ZM57.0838 50.1103V52.7046H69.0838V50.1103H57.0838ZM65.6796 44.1103H63.0838V56.1103H65.6796V44.1103ZM59.6796 47.5156V50.1103H71.6796V47.5156H59.6796ZM55.3008 53.5156H65.6796V41.5156H55.3008V53.5156ZM61.3008 50.1099V47.5156H49.3008V50.1099H61.3008ZM55.2997 56.1099H55.3008V44.1099H55.2997V56.1099ZM49.2997 47.5156V50.1099H61.2997V47.5156H49.2997ZM37.1376 53.5156H55.2997V41.5156H37.1376V53.5156ZM37.1367 53.5156H37.1376V41.5156H37.1367V53.5156ZM18.9746 53.5156H37.1367V41.5156H18.9746V53.5156ZM32.7578 55.2993V52.7046H20.7578V55.2993H32.7578ZM57.8944 49.2993H26.7578V61.2993H57.8944V49.2993ZM51.8944 52.7046V55.2993H63.8944V52.7046H51.8944ZM26.7578 58.7046H57.8944V46.7046H26.7578V58.7046ZM52.7041 12.9736H44.9199V24.9736H52.7041V12.9736ZM46.7041 16.3789V18.9736H58.7041V16.3789H46.7041ZM44.9199 22.3789H52.7041V10.3789H44.9199V22.3789ZM50.9199 18.9736V16.3789H38.9199V18.9736H50.9199ZM60.4892 10.3789H52.7051V22.3789H60.4892V10.3789ZM66.4892 18.9736V16.3789H54.4892V18.9736H66.4892ZM52.7051 24.9736H60.4892V12.9736H52.7051V24.9736ZM46.7051 16.3789V18.9736H58.7051V16.3789H46.7051Z" fill="white" mask="url(#path-1-outside-1_6935_70011)"/>
<path d="M60.4881 55.2993H24.1621V57.894H60.4881V55.2993Z" fill="#FFFDF2"/>
<path d="M60.4901 57.8945H24.1641V60.4892H60.4901V57.8945Z" fill="#FFFDF2"/>
<path d="M60.4901 60.4888H24.1641V63.0835H60.4901V60.4888Z" fill="#FFFDF2"/>
<path d="M60.4901 63.0835H24.1641V65.6782H60.4901V63.0835Z" fill="#FFFDF2"/>
<path d="M29.3515 65.6787H24.1621V68.2734H29.3515V65.6787Z" fill="#FFFDF2"/>
<path d="M60.4891 65.6787H31.9473V68.2734H60.4891V65.6787Z" fill="#FFFDF2"/>
<path d="M29.3515 68.2729H24.1621V70.8677H29.3515V68.2729Z" fill="#FFFDF2"/>
<path d="M60.4891 68.2734H31.9473V70.8682H60.4891V68.2734Z" fill="#FFFDF2"/>
<path d="M29.3535 70.8677H24.1641V73.4624H29.3535V70.8677Z" fill="#FFFDF2"/>
<path d="M60.4891 70.8677H31.9473V73.4624H60.4891V70.8677Z" fill="#FFFDF2"/>
<path d="M29.3535 73.4624H24.1641V76.0571H29.3535V73.4624Z" fill="#FFFDF2"/>
<path d="M60.4891 73.4624H31.9473V76.0571H60.4891V73.4624Z" fill="#FFFDF2"/>
<path d="M29.3535 76.0571H24.1641V78.6518H29.3535V76.0571Z" fill="#FFFDF2"/>
<path d="M60.4891 76.0576H31.9473V78.6523H60.4891V76.0576Z" fill="#FFFDF2"/>
<path d="M29.3515 78.6523H24.1621V81.2471H29.3515V78.6523Z" fill="#FFFDF2"/>
<path d="M60.4891 78.6519H31.9473V81.2466H60.4891V78.6519Z" fill="#FFFDF2"/>
<path d="M29.3535 81.2466H24.1641V83.8413H29.3535V81.2466Z" fill="#FFFDF2"/>
<path d="M60.4891 81.2466H31.9473V83.8413H60.4891V81.2466Z" fill="#FFFDF2"/>
<path d="M37.1377 57.894H34.543V60.4888H37.1377V57.894Z" fill="#FFC110"/>
<path d="M39.7314 60.4888H31.9473V63.0835H39.7314V60.4888Z" fill="#FFC110"/>
<path d="M44.9209 60.4888H42.3262V63.0835H44.9209V60.4888Z" fill="#FFC110"/>
<path d="M52.706 60.4888H50.1113V63.0835H52.706V60.4888Z" fill="#FFC110"/>
<path d="M37.1357 63.0835H34.541V65.6782H37.1357V63.0835Z" fill="#FFC110"/>
<path d="M44.9209 63.0835H42.3262V65.6782H44.9209V63.0835Z" fill="#FFC110"/>
<path d="M47.5146 65.6787H39.7305V68.2734H47.5146V65.6787Z" fill="#FFC110"/>
<path d="M52.704 68.2734H34.541V70.8682H52.704V68.2734Z" fill="#FFC110"/>
<path d="M47.5146 70.8677H39.7305V73.4624H47.5146V70.8677Z" fill="#FFC110"/>
<path d="M44.9209 73.4624H42.3262V76.0571H44.9209V73.4624Z" fill="#FFC110"/>
<path d="M44.9209 76.0571H42.3262V78.6518H44.9209V76.0571Z" fill="#FFC110"/>
<path d="M50.1103 6H47.5156V8.59472H50.1103V6Z" fill="#552E05"/>
<path d="M50.1103 8.59473H47.5156V11.1894H50.1103V8.59473Z" fill="#552E05"/>
<path d="M65.6787 8.59473H63.084V11.1894H65.6787V8.59473Z" fill="#552E05"/>
<path d="M47.5146 11.1895H44.9199V13.7842H47.5146V11.1895Z" fill="#552E05"/>
<path d="M63.084 11.1895H57.8945V13.7842H63.084V11.1895Z" fill="#552E05"/>
<path d="M21.5693 13.7842H18.9746V16.3789H21.5693V13.7842Z" fill="#049D43"/>
<path d="M26.7588 13.7837H24.1641V16.3784H26.7588V13.7837Z" fill="#049D43"/>
<path d="M31.9482 13.7837H29.3535V16.3784H31.9482V13.7837Z" fill="#049D43"/>
<path d="M47.5146 13.7842H44.9199V16.3789H47.5146V13.7842Z" fill="#552E05"/>
<path d="M57.8945 13.7842H52.7051V16.3789H57.8945V13.7842Z" fill="#552E05"/>
<path d="M18.9736 16.3789H16.3789V18.9736H18.9736V16.3789Z" fill="#049D43"/>
<path d="M21.5693 16.3789H18.9746V18.9736H21.5693V16.3789Z" fill="#0B5027"/>
<path d="M24.1631 16.3789H21.5684V18.9736H24.1631V16.3789Z" fill="#049D43"/>
<path d="M26.7568 16.3789H24.1621V18.9736H26.7568V16.3789Z" fill="#0B5027"/>
<path d="M29.3525 16.3789H26.7578V18.9736H29.3525V16.3789Z" fill="#049D43"/>
<path d="M31.9463 16.3789H29.3516V18.9736H31.9463V16.3789Z" fill="#0B5027"/>
<path d="M34.542 16.3789H31.9473V18.9736H34.542V16.3789Z" fill="#049D43"/>
<path d="M44.9199 16.3789H39.7305V18.9736H44.9199V16.3789Z" fill="#A86F60"/>
<path d="M52.7041 16.3789H44.9199V18.9736H52.7041V16.3789Z" fill="#F8DDB0"/>
<path d="M60.4892 16.3789H52.7051V18.9736H60.4892V16.3789Z" fill="#FD8B5B"/>
<path d="M16.3799 18.9736H13.7852V21.5683H16.3799V18.9736Z" fill="#049D43"/>
<path d="M18.9736 18.9736H16.3789V21.5683H18.9736V18.9736Z" fill="#0B5027"/>
<path d="M21.5674 18.9736H18.9727V21.5683H21.5674V18.9736Z" fill="#049D43"/>
<path d="M26.7578 18.9736H21.5684V21.5683H26.7578V18.9736Z" fill="#0B5027"/>
<path d="M34.542 18.9736H26.7578V21.5683H34.542V18.9736Z" fill="#FD8B5B"/>
<path d="M42.3252 18.9736H34.541V21.5683H42.3252V18.9736Z" fill="#A86F60"/>
<path d="M57.8945 18.9736H42.3262V21.5683H57.8945V18.9736Z" fill="#F8DDB0"/>
<path d="M63.084 18.9736H57.8945V21.5683H63.084V18.9736Z" fill="#FD8B5B"/>
<path d="M13.7842 21.5684H11.1895V24.1631H13.7842V21.5684Z" fill="#049D43"/>
<path d="M16.3799 21.5684H13.7852V24.1631H16.3799V21.5684Z" fill="#0B5027"/>
<path d="M18.9736 21.5684H16.3789V24.1631H18.9736V21.5684Z" fill="#049D43"/>
<path d="M24.164 21.5684H18.9746V24.1631H24.164V21.5684Z" fill="#0B5027"/>
<path d="M29.3535 21.5684H24.1641V24.1631H29.3535V21.5684Z" fill="#FD8B5B"/>
<path d="M39.7324 21.5684H29.3535V24.1631H39.7324V21.5684Z" fill="#E9265C"/>
<path d="M47.5146 21.5684H39.7305V24.1631H47.5146V21.5684Z" fill="#F8DDB0"/>
<path d="M55.2998 21.5684H47.5156V24.1631H55.2998V21.5684Z" fill="#FFA21E"/>
<path d="M60.4902 21.5684H55.3008V24.1631H60.4902V21.5684Z" fill="#F8DDB0"/>
<path d="M63.0849 21.5684H60.4902V24.1631H63.0849V21.5684Z" fill="#FD8B5B"/>
<path d="M68.2734 21.5684H63.084V24.1631H68.2734V21.5684Z" fill="#A86F60"/>
<path d="M13.7842 24.1631H11.1895V26.7578H13.7842V24.1631Z" fill="#049D43"/>
<path d="M16.3799 24.1631H13.7852V26.7578H16.3799V24.1631Z" fill="#0B5027"/>
<path d="M18.9736 24.1631H16.3789V26.7578H18.9736V24.1631Z" fill="#049D43"/>
<path d="M21.5693 24.1631H18.9746V26.7578H21.5693V24.1631Z" fill="#0B5027"/>
<path d="M26.7578 24.1631H21.5684V26.7578H26.7578V24.1631Z" fill="#FD8B5B"/>
<path d="M42.3261 24.1631H26.7578V26.7578H42.3261V24.1631Z" fill="#E9265C"/>
<path d="M44.9209 24.1631H42.3262V26.7578H44.9209V24.1631Z" fill="#F8DDB0"/>
<path d="M47.5146 24.1631H44.9199V26.7578H47.5146V24.1631Z" fill="#FFA21E"/>
<path d="M55.2998 24.1631H47.5156V26.7578H55.2998V24.1631Z" fill="#FFC925"/>
<path d="M57.8955 24.1626H55.3008V26.7573H57.8955V24.1626Z" fill="#FFA21E"/>
<path d="M60.4892 24.1626H57.8945V26.7573H60.4892V24.1626Z" fill="#F8DDB0"/>
<path d="M63.083 24.1631H60.4883V26.7578H63.083V24.1631Z" fill="#FD8B5B"/>
<path d="M70.8681 24.1631H63.084V26.7578H70.8681V24.1631Z" fill="#A86F60"/>
<path d="M78.652 26.7578L6 26.7578V29.3525L78.652 29.3525V26.7578Z" fill="#FFFDF2"/>
<path d="M76.0583 29.3525L8.5957 29.3525V31.9473L76.0583 31.9473V29.3525Z" fill="#FFFDF2"/>
<path d="M76.0583 31.9473L8.5957 31.9473V34.542H76.0583V31.9473Z" fill="#B92B3C"/>
<path d="M73.4626 34.542H11.1895V37.1367H73.4626V34.542Z" fill="#B92B3C"/>
<path d="M73.4626 37.1367H11.1895V39.7314H73.4626V37.1367Z" fill="#FFFDF2"/>
<path d="M70.8689 39.7314H13.7852V42.3262H70.8689V39.7314Z" fill="#B92B3C"/>
<path d="M70.8689 42.3257H13.7852V44.9204H70.8689V42.3257Z" fill="#FFFDF2"/>
<path d="M68.2732 44.9204H16.3789V47.5151H68.2732V44.9204Z" fill="#FFFDF2"/>
<path d="M37.1376 47.5156H18.9746V50.1103H37.1376V47.5156Z" fill="#FFFDF2"/>
<path d="M55.2997 47.5156H37.1367V50.1103H55.2997V47.5156Z" fill="#B92B3C"/>
<path d="M65.6796 47.5156H55.3008V50.1103H65.6796V47.5156Z" fill="#FFFDF2"/>
<path d="M63.0838 50.1099H21.5684V52.7046H63.0838V50.1099Z" fill="#FFFDF2"/>
<path d="M57.8944 52.7046H26.7578V55.2993H57.8944V52.7046Z" fill="#FFFDF2"/>
<path d="M42.3261 29.3525H26.7578V31.9473H42.3261V29.3525Z" fill="#00A556"/>
<path d="M60.4882 29.3525H44.9199V31.9473H60.4882V29.3525Z" fill="#00A556"/>
<path d="M29.3525 31.9473H26.7578V34.542H29.3525V31.9473Z" fill="#00A556"/>
<path d="M34.541 31.9468H29.3516V34.5415H34.541V31.9468Z" fill="white"/>
<path d="M39.7304 31.9473H34.541V34.542H39.7304V31.9473Z" fill="black"/>
<path d="M42.3252 31.9473H39.7305V34.542H42.3252V31.9473Z" fill="#00A556"/>
<path d="M47.5146 31.9473H44.9199V34.542H47.5146V31.9473Z" fill="#00A556"/>
<path d="M52.7051 31.9473H47.5156V34.542H52.7051V31.9473Z" fill="white"/>
<path d="M57.8945 31.9473H52.7051V34.542H57.8945V31.9473Z" fill="black"/>
<path d="M60.4892 31.9473H57.8945V34.542H60.4892V31.9473Z" fill="#00A556"/>
<path d="M29.3535 34.542H18.9746V37.1367H29.3535V34.542Z" fill="#00A556"/>
<path d="M34.5429 34.5415H29.3535V37.1362H34.5429V34.5415Z" fill="white"/>
<path d="M39.7324 34.5415H34.543V37.1362H39.7324V34.5415Z" fill="black"/>
<path d="M47.5146 34.5415H39.7305V37.1362H47.5146V34.5415Z" fill="#00A556"/>
<path d="M52.7051 34.542H47.5156V37.1367H52.7051V34.542Z" fill="white"/>
<path d="M57.8945 34.542H52.7051V37.1367H57.8945V34.542Z" fill="black"/>
<path d="M60.4892 34.5415H57.8945V37.1362H60.4892V34.5415Z" fill="#00A556"/>
<path d="M21.5693 37.1367H18.9746V39.7314H21.5693V37.1367Z" fill="#00A556"/>
<path d="M29.3525 37.1367H26.7578V39.7314H29.3525V37.1367Z" fill="#00A556"/>
<path d="M34.5429 37.1367H29.3535V39.7314H34.5429V37.1367Z" fill="white"/>
<path d="M39.7304 37.1367H34.541V39.7314H39.7304V37.1367Z" fill="black"/>
<path d="M42.3252 37.1367H39.7305V39.7314H42.3252V37.1367Z" fill="#00A556"/>
<path d="M47.5146 37.1367H44.9199V39.7314H47.5146V37.1367Z" fill="#00A556"/>
<path d="M52.7051 37.1367H47.5156V39.7314H52.7051V37.1367Z" fill="white"/>
<path d="M57.8945 37.1367H52.7051V39.7314H57.8945V37.1367Z" fill="black"/>
<path d="M60.4892 37.1367H57.8945V39.7314H60.4892V37.1367Z" fill="#00A556"/>
<path d="M21.5693 39.7314H18.9746V42.3262H21.5693V39.7314Z" fill="#00A556"/>
<path d="M29.3525 39.7314H26.7578V42.3262H29.3525V39.7314Z" fill="#00A556"/>
<path d="M34.541 39.7314H29.3516V42.3262H34.541V39.7314Z" fill="white"/>
<path d="M39.7304 39.7314H34.541V42.3262H39.7304V39.7314Z" fill="black"/>
<path d="M42.3252 39.7314H39.7305V42.3262H42.3252V39.7314Z" fill="#00A556"/>
<path d="M47.5146 39.731H44.9199V42.3257H47.5146V39.731Z" fill="#00A556"/>
<path d="M52.7051 39.731H47.5156V42.3257H52.7051V39.731Z" fill="white"/>
<path d="M57.8945 39.7314H52.7051V42.3262H57.8945V39.7314Z" fill="black"/>
<path d="M60.4892 39.7314H57.8945V42.3262H60.4892V39.7314Z" fill="#00A556"/>
<path d="M42.3261 42.3262H26.7578V44.9209H42.3261V42.3262Z" fill="#00A556"/>
<path d="M60.4882 42.3257H44.9199V44.9204H60.4882V42.3257Z" fill="#00A556"/>
</svg>
