<svg width="92" height="92" viewBox="0 0 92 92" fill="none" xmlns="http://www.w3.org/2000/svg">
<path d="M48.0482 7.5064L45.8306 5.07241L43.613 7.5064L37.3564 14.3736L28.5043 11.5548L25.3668 10.5557L24.6633 13.7724L22.6785 22.8479L13.6029 24.8327L10.3862 25.5362L11.3853 28.6737L14.2042 37.5258L7.33697 43.7825L4.90297 46.0001L7.33697 48.2177L14.2042 54.4744L11.3853 63.3264L10.3862 66.4639L13.6029 67.1674L22.6785 69.1523L24.6633 78.2278L25.3668 81.4445L28.5043 80.4454L37.3564 77.6265L43.613 84.4937L45.8306 86.9277L48.0482 84.4937L54.3049 77.6265L63.157 80.4454L66.2945 81.4445L66.998 78.2278L68.9828 69.1523L78.0583 67.1674L81.275 66.4639L80.2759 63.3264L77.4571 54.4744L84.3243 48.2177L86.7583 46.0001L84.3243 43.7825L77.4571 37.5258L80.2759 28.6737L81.275 25.5362L78.0583 24.8327L68.9828 22.8479L66.998 13.7724L66.2945 10.5557L63.157 11.5548L54.3049 14.3736L48.0482 7.5064Z" fill="#EC4053" stroke="white" stroke-width="6"/>
<path fill-rule="evenodd" clip-rule="evenodd" d="M41.7595 45.1519C42.509 45.1519 43.1166 45.7595 43.1166 46.509C43.1166 48.0081 44.3319 49.2233 45.8309 49.2233C47.33 49.2233 48.5452 48.0081 48.5452 46.509C48.5452 45.7595 49.1528 45.1519 49.9023 45.1519C50.6519 45.1519 51.2595 45.7595 51.2595 46.509C51.2595 49.5071 48.829 51.9376 45.8309 51.9376C42.8328 51.9376 40.4023 49.5071 40.4023 46.509C40.4023 45.7595 41.01 45.1519 41.7595 45.1519Z" fill="white"/>
<path d="M32.9383 34.1255L33.723 36.115C34.4161 37.8725 35.8048 39.2627 37.5578 39.9541L39.5544 40.7416L37.5578 41.529C35.8048 42.2204 34.4161 43.6106 33.723 45.3681L32.9383 47.3576L32.1537 45.3681C31.4605 43.6106 30.0719 42.2204 28.3189 41.529L26.3223 40.7416L28.3189 39.9541C30.0719 39.2627 31.4605 37.8725 32.1537 36.115L32.9383 34.1255Z" fill="white"/>
<path d="M59.0633 34.1255L59.848 36.115C60.5411 37.8725 61.9298 39.2627 63.6828 39.9541L65.6794 40.7416L63.6828 41.529C61.9298 42.2204 60.5411 43.6106 59.848 45.3681L59.0633 47.3576L58.2787 45.3681C57.5855 43.6106 56.1969 42.2204 54.4439 41.529L52.4473 40.7416L54.4439 39.9541C56.1969 39.2627 57.5855 37.8725 58.2787 36.115L59.0633 34.1255Z" fill="white"/>
</svg>
